<svg width="50" height="50" viewBox="0 0 50 50" fill="none" xmlns="http://www.w3.org/2000/svg">
<rect width="50" height="50" rx="4" fill="#FFC42D"/>
<mask id="path-2-outside-1_1595_83836" maskUnits="userSpaceOnUse" x="13" y="12" width="24" height="24" fill="black">
<rect fill="white" x="13" y="12" width="24" height="24"/>
<path d="M22.136 34.5511V13.983H27.8604V34.5511H22.136ZM14.707 27.1364V21.4119H35.2752V27.1364H14.707Z"/>
</mask>
<path d="M22.136 34.5511V13.983H27.8604V34.5511H22.136ZM14.707 27.1364V21.4119H35.2752V27.1364H14.707Z" fill="white" fill-opacity="0.8"/>
<path d="M22.136 34.5511H21.136C21.136 35.1034 21.5837 35.5511 22.136 35.5511V34.5511ZM22.136 13.983V12.983C21.5837 12.983 21.136 13.4307 21.136 13.983H22.136ZM27.8604 13.983H28.8604C28.8604 13.4307 28.4127 12.983 27.8604 12.983V13.983ZM27.8604 34.5511V35.5511C28.4127 35.5511 28.8604 35.1034 28.8604 34.5511H27.8604ZM14.707 27.1364H13.707C13.707 27.6886 14.1547 28.1364 14.707 28.1364V27.1364ZM14.707 21.4119V20.4119C14.1547 20.4119 13.707 20.8596 13.707 21.4119H14.707ZM35.2752 21.4119H36.2752C36.2752 20.8596 35.8275 20.4119 35.2752 20.4119V21.4119ZM35.2752 27.1364V28.1364C35.8275 28.1364 36.2752 27.6886 36.2752 27.1364H35.2752ZM23.136 34.5511V13.983H21.136V34.5511H23.136ZM22.136 14.983H27.8604V12.983H22.136V14.983ZM26.8604 13.983V34.5511H28.8604V13.983H26.8604ZM27.8604 33.5511H22.136V35.5511H27.8604V33.5511ZM15.707 27.1364V21.4119H13.707V27.1364H15.707ZM14.707 22.4119H35.2752V20.4119H14.707V22.4119ZM34.2752 21.4119V27.1364H36.2752V21.4119H34.2752ZM35.2752 26.1364H14.707V28.1364H35.2752V26.1364Z" fill="black" mask="url(#path-2-outside-1_1595_83836)"/>
</svg>
