<svg width="500" height="1000" viewBox="0 0 500 1000" fill="none" xmlns="http://www.w3.org/2000/svg">
<g clip-path="url(#clip0_21_543)">
<path d="M146 362H110V376H146V362Z" fill="#FFD582"/>
<path d="M146 376H131V411H138V460H146V376Z" fill="#FFD582"/>
<path d="M125 404V376H110V404H103V411H118V404H125Z" fill="#7F683C"/>
<path d="M146 459H138V472H152V466H146V459Z" fill="#ACACAC"/>
<path d="M110 411H103V425H110V411Z" fill="#646464"/>
<path d="M146 362H110V305H124V313H146V362Z" fill="#E6B85D"/>
<path d="M139 313H124V305H139V313Z" fill="#FFF0D3"/>
<path d="M130 305H124V297H130V305Z" fill="#E6B85D"/>
<path d="M130 305H124V297H130V305Z" fill="black" fill-opacity="0.2"/>
<path d="M104 313H110V347H103V362H110V376H118V383H110V376H103V362H96V347H103V313H104Z" fill="#FFE4B0"/>
<rect x="103" y="319" width="7" height="28" fill="#7F683C"/>
<path d="M139 297H117V275H139V297Z" fill="#FFD88B"/>
<path d="M104 612H140V626H104V612Z" fill="#FFD582"/>
<path d="M104 626H119V661H112V710H104V626Z" fill="#FFD582"/>
<path d="M125 654V626H140V654H147V661H132V654H125Z" fill="#7F683C"/>
<path d="M104 709H112V722H98V716H104V709Z" fill="#ACACAC"/>
<path d="M140 661H147V675H140V661Z" fill="#646464"/>
<path d="M104 612H140V555H126V563H104V612Z" fill="#E6B85D"/>
<path d="M111 563H126V555H111V563Z" fill="#FFF0D3"/>
<path d="M120 555H126V547H120V555Z" fill="#E6B85D"/>
<path d="M120 555H126V547H120V555Z" fill="black" fill-opacity="0.2"/>
<path d="M146 563H140V597H147V612H140V626H132V633H140V626H147V612H154V597H147V563H146Z" fill="#FFE4B0"/>
<rect width="7" height="28" transform="matrix(-1 0 0 1 147 569)" fill="#7F683C"/>
<path d="M133 547H111V525H133V547Z" fill="#FFD88B"/>
<path d="M104 805H110V839H103V854H110V868H118V875H110V868H103V854H96V839H103V805H104Z" fill="#FFE4B0"/>
<rect x="103" y="811" width="7" height="28" fill="#7F683C"/>
<path d="M146 862H110V876H146V862Z" fill="#7F683C"/>
<path d="M146 876H131V911H138V960H146V876Z" fill="#7F683C"/>
<path d="M125 904V876H110V904H103V911H118V904H125Z" fill="#7F683C"/>
<path d="M146 959H138V972H152V966H146V959Z" fill="#ACACAC"/>
<path d="M110 911H103V925H110V911Z" fill="#646464"/>
<path d="M146 862H110V805H146V813V862Z" fill="#E6B85D"/>
<path d="M146 862H110V805H146V813V862Z" fill="black" fill-opacity="0.2"/>
<path d="M130 805H124V797H130V805Z" fill="#E6B85D"/>
<path d="M130 805H124V797H130V805Z" fill="black" fill-opacity="0.4"/>
<path d="M146 813H153V833H160V869H153V833H146V813Z" fill="#7F683C"/>
<path d="M153 869V833H160V869H153Z" fill="#FFE3AC"/>
<path d="M140 797H118V775H140V797Z" fill="#FFD88B"/>
<path d="M146 112H110V126H146V112Z" fill="#FFD582"/>
<path d="M146 126H131V203H139V168H146V126Z" fill="#7F683C"/>
<path d="M110 126H125V168H110V126Z" fill="#FFD582"/>
<path d="M110 168H118V203H110V168Z" fill="#7F683C"/>
<path d="M139 202H131V215H145V209H139V202Z" fill="#646464"/>
<path d="M118 202H110V222H118V202Z" fill="#ACACAC"/>
<path d="M146 112H110V55H124V63H146V112Z" fill="#E6B85D"/>
<path d="M139 63H124V55H139V63Z" fill="#FFF0D3"/>
<path d="M130 55H124V47H130V55Z" fill="#E6B85D"/>
<path d="M130 55H124V47H130V55Z" fill="black" fill-opacity="0.2"/>
<path d="M153 90H146V132H153V90Z" fill="#7F683C"/>
<path d="M103 55H110V90H103V91V136H97V91H103V90V55Z" fill="#FFD582"/>
<rect x="103" y="55" width="7" height="6" fill="#FFE3AC"/>
<rect x="97" y="91" width="6" height="45" fill="#FFE3AC"/>
<path d="M139 47H117V25H139V47Z" fill="#FFD88B"/>
<path d="M396 112H360V126H396V112Z" fill="#FFD582"/>
<path d="M396 126H381V203H389V168H396V126Z" fill="#7F683C"/>
<path d="M360 126H375V168H360V126Z" fill="#FFD582"/>
<path d="M360 168H368V203H360V168Z" fill="#7F683C"/>
<path d="M389 202H381V215H395V209H389V202Z" fill="#646464"/>
<path d="M368 202H360V222H368V202Z" fill="#ACACAC"/>
<path d="M396 112H360V55H374V63H396V112Z" fill="#E6B85D"/>
<path d="M389 63H374V55H389V63Z" fill="#FFF0D3"/>
<path d="M380 55H374V47H380V55Z" fill="#E6B85D"/>
<path d="M380 55H374V47H380V55Z" fill="black" fill-opacity="0.2"/>
<path d="M403 90H396V132H403V90Z" fill="#7F683C"/>
<path d="M353 55H360V90H353V91V136H347V91H353V90V55Z" fill="#FFD582"/>
<rect x="353" y="55" width="7" height="6" fill="#FFE3AC"/>
<rect x="347" y="91" width="6" height="45" fill="#FFE3AC"/>
<path d="M389 49H367V27H389V49Z" fill="#FFD88B"/>
<path d="M374 417H367V431H374V417Z" fill="#646464"/>
<path d="M396 404V376H381V404H367V417H374V411H389V404H396Z" fill="#7F683C"/>
<path d="M375 376H360V391H366V411H374V459H382V383H375V376Z" fill="#FFD582"/>
<path d="M382 459H374V472H388V466H382V459Z" fill="#ACACAC"/>
<path d="M396 362H360V376H396V362Z" fill="#FFD582"/>
<path d="M396 362H360V305H374V313H396V362Z" fill="#E6B85D"/>
<path d="M389 313H374V305H389V313Z" fill="#FFF0D3"/>
<path d="M380 305H374V297H380V305Z" fill="#E6B85D"/>
<path d="M380 305H374V297H380V305Z" fill="black" fill-opacity="0.2"/>
<path d="M396 328H403V348H410V384H403V348H396V328Z" fill="#7F683C"/>
<path d="M403 384V348H410V384H403Z" fill="#FFE3AC"/>
<path d="M353 305H360V340H353V341V376H347V341H353V340V305Z" fill="#FFD582"/>
<rect x="353" y="305" width="7" height="6" fill="#FFE3AC"/>
<path d="M389 299H367V277H389V299Z" fill="#FFD88B"/>
<path d="M376 667H383V681H376V667Z" fill="#646464"/>
<path d="M354 654V626H369V654H383V667H376V661H361V654H354Z" fill="#7F683C"/>
<path d="M375 626H390V641H384V661H376V709H368V633H375V626Z" fill="#FFD582"/>
<path d="M368 709H376V722H362V716H368V709Z" fill="#ACACAC"/>
<path d="M354 612H390V626H354V612Z" fill="#FFD582"/>
<path d="M354 612H390V555H376V563H354V612Z" fill="#E6B85D"/>
<path d="M361 563H376V555H361V563Z" fill="#FFF0D3"/>
<path d="M370 555H376V547H370V555Z" fill="#E6B85D"/>
<path d="M370 555H376V547H370V555Z" fill="black" fill-opacity="0.2"/>
<path d="M354 578H347V598H340V634H347V598H354V578Z" fill="#7F683C"/>
<path d="M347 634V598H340V634H347Z" fill="#FFE3AC"/>
<path d="M397 555H390V590H397V591V626H403V591H397V590V555Z" fill="#FFD582"/>
<rect width="7" height="6" transform="matrix(-1 0 0 1 397 555)" fill="#FFE3AC"/>
<path d="M383 549H361V527H383V549Z" fill="#FFD88B"/>
<path d="M396 862H360V876H396V862Z" fill="#7F683C"/>
<path d="M396 904V876H381V904H367V917H374V911H389V904H396Z" fill="#7F683C"/>
<path d="M382 959H374V972H388V966H382V959Z" fill="#ACACAC"/>
<path d="M375 917H367V937H375V917Z" fill="#ACACAC"/>
<path d="M375 876H360V891H366V911H374V959H382V883H375V876Z" fill="#7F683C"/>
<path d="M396 862H360V805H396V813V862Z" fill="#E6B85D"/>
<path d="M396 862H360V805H396V813V862Z" fill="black" fill-opacity="0.2"/>
<path d="M380 805H374V797H380V805Z" fill="#E6B85D"/>
<path d="M380 805H374V797H380V805Z" fill="black" fill-opacity="0.4"/>
<path d="M397 805H403V839H396V854H403V868H411V875H403V868H396V854H389V839H396V805H397Z" fill="#FFE4B0"/>
<rect x="396" y="811" width="7" height="28" fill="#7F683C"/>
<path d="M390 799H368V777H390V799Z" fill="#FFD88B"/>
</g>
<defs>
<clipPath id="clip0_21_543">
<rect width="500" height="1000" rx="5" fill="white"/>
</clipPath>
</defs>
</svg>
